<svg width="22" height="23" viewBox="0 0 22 23" fill="none" xmlns="http://www.w3.org/2000/svg">
<path d="M20.8568 0.485312C21.1673 0.374626 21.5136 0.452149 21.7474 0.68453C21.9812 0.916966 22.0613 1.26302 21.9525 1.57418L14.8041 21.9912C14.6887 22.3204 14.385 22.547 14.0365 22.5634C13.688 22.5798 13.364 22.3823 13.2181 22.0654L9.23083 13.3984C9.22318 13.3915 9.21485 13.3851 9.20739 13.3779C9.14998 13.3225 9.10237 13.2609 9.06384 13.1953L0.502313 9.30465C0.184872 9.16036 -0.0142105 8.83759 0.000359966 8.48922C0.015039 8.14077 0.240217 7.83584 0.568719 7.71871L20.8568 0.485312ZM3.1361 8.62105L9.72009 11.6132L12.7386 8.48726C13.067 8.14713 13.6084 8.13748 13.9486 8.46578C14.2887 8.79409 14.2983 9.33559 13.9701 9.67574L10.8763 12.8798L13.8881 19.4257L19.7445 2.69918L3.1361 8.62105Z" fill="#0E172B"/>
</svg>
